<?xml version="1.0" encoding="utf-8"?>
<!DOCTYPE svg >
<svg version="1.1" xmlns="http://www.w3.org/2000/svg" xmlns:xlink="http://www.w3.org/1999/xlink" x="0px" y="0px" viewBox="0 0 1000 1000" enable-background="new 0 0 1000 1000" xml:space="preserve">
<g><g transform="translate(0.000000,512.000000) scale(0.100000,-0.100000)"><path style = "fill:white" d="M8746.3,5002.8c-11.9-7.9-221.5-249.1-468.6-533.9c-344.1-401.4-456.8-545.7-484.4-622.9c-31.7-85-83-496.3-83-664.4c0-17.8-696-727.6-1546.2-1577.9L4615.8,55.6v-98.9c0-85,9.9-106.8,65.2-162.2c55.4-55.3,77.1-65.2,162.1-65.2h98.9l1546.2,1546.2l1548.2,1546.2l300.6,23.7c215.5,15.8,330.2,35.6,403.3,65.2c75.2,29.7,243.2,162.1,622.9,486.4c284.7,245.2,526,460.7,531.9,482.5c7.9,19.8,5.9,43.5-4,53.4c-9.9,9.9-195.7,31.6-413.2,47.5c-235.3,19.8-419.2,43.5-458.7,59.3c-96.9,43.5-118.6,116.7-150.3,535.8c-15.8,205.6-35.6,391.5-43.5,409.3C8811.6,5020.6,8781.9,5028.5,8746.3,5002.8z"/><path style = "fill:white" d="M4378.5,4680.5c-425.1-39.5-984.7-185.9-1401.9-363.8C1863.4,3838.2,961.7,2936.5,483.2,1825.3C-280,43.7,117.4-2020.5,1491.6-3394.8c745.4-745.5,1686.6-1208.1,2758.3-1356.4c243.2-35.6,943.2-35.6,1186.4,0c1061.8,146.3,2016.8,616.9,2758.3,1356.4c379.6,379.6,652.5,761.3,897.7,1255.6c723.7,1455.3,648.6,3159.7-197.7,4561.6c-77.1,128.5-108.8,164.1-134.5,154.2c-17.8-7.9-154.2-23.7-306.5-39.5l-272.9-25.7l-124.6-122.6l-122.6-122.6l126.6-189.8c478.5-711.8,707.9-1639.2,618.9-2495.3c-94.9-905.6-474.5-1702.5-1115.2-2345.1c-642.6-640.6-1439.5-1020.3-2345.1-1115.2C3411.6-4067,1687.4-2912.3,1155.5-1158.4c-124.6,407.3-154.2,630.8-154.2,1115.2c0,484.4,29.7,707.9,154.2,1115.2c322.3,1065.8,1105.3,1951.6,2125.6,2406.4c1188.4,529.9,2612,413.3,3681.7-304.5l189.8-126.6l122.6,122.6l124.6,124.6l23.7,274.9c13.8,150.3,31.6,288.7,39.6,306.5c9.9,25.7-29.7,57.3-191.8,154.2C6395.3,4550,5396.8,4775.4,4378.5,4680.5z"/><path style = "fill:white" d="M4487.2,2902.9c-1293.1-178-2279.8-1093.4-2552.7-2372.7c-65.2-298.6-65.2-848.2,0-1146.8c142.4-666.4,448.9-1196.3,955-1651c369.7-334.2,846.3-569.5,1380.1-684.1c298.6-65.3,846.3-65.3,1146.8,0c616.9,130.5,1067.7,375.7,1512.6,822.5c446.9,444.9,692.1,895.7,822.5,1512.6c59.3,274.8,65.3,826.5,11.9,1097.4c-57.3,294.6-146.3,553.6-282.7,816.6c-193.8,381.6-134.5,381.6-510.2,5.9L6648.4,981l45.5-83c73.2-132.5,181.9-482.5,207.6-674.3c83.1-626.8-140.4-1279.3-593.2-1732.1c-268.9-266.9-589.2-446.9-990.6-555.6c-195.7-53.4-690.1-59.3-899.7-11.9C3623.2-1894,3043.8-1328.5,2820.4-517.8c-31.6,122.6-39.5,205.6-39.5,474.6c0,355.9,19.8,464.7,142.4,781c185.9,480.5,658.4,953.1,1138.9,1138.9c312.4,120.6,427.1,142.4,771.1,144.3c363.8,2,533.9-31.6,858.1-172l183.9-79.1l318.3,318.3c369.8,369.8,367.8,312.4,13.8,496.3c-425.1,221.5-790.9,314.4-1285.2,328.2C4754.2,2916.7,4558.4,2912.8,4487.2,2902.9z"/><path style = "fill:white" d="M4550.5,1103.6c-215.5-57.3-369.8-146.3-537.8-316.4c-172-170-259-322.3-316.4-545.7c-71.2-278.8-35.6-581.3,102.8-844.3c83-160.1,324.3-401.4,484.4-484.4c158.2-83,391.5-142.3,559.6-142.3s401.4,59.3,559.6,142.3c160.2,83,401.4,324.3,484.4,484.4c81.1,154.2,142.4,391.5,142.4,551.7c0,112.7-31.6,320.3-51.4,342.1c-5.9,5.9-197.7-178-429.1-407.3c-387.5-385.6-427.1-419.2-526-448.8c-225.4-67.2-409.3-21.7-567.5,134.5c-156.2,158.2-201.7,342.1-134.4,567.5c29.7,98.9,63.3,138.4,448.8,526c229.4,231.3,413.3,423.1,407.3,429.1c-4,4-55.4,17.8-112.7,29.7C4912.4,1153,4714.6,1147.1,4550.5,1103.6z"/></g></g>
</svg>