<svg id="Layer_1" data-name="Layer 1" xmlns="http://www.w3.org/2000/svg" viewBox="0 0 310.62 80.27"><defs><style>.cls-1{fill:#aa1a2f;}.cls-2{fill:#231f20;}.cls-3{fill:#55565a;}</style></defs><title>Artboard 1</title><path class="cls-1" d="M11.66,6.8C11.49,5.11,10.6,3.54,8.8,3.54c-2.09,0-3.13,1.76-3.13,5.82,0,4.21.95,6.22,3.63,6.22,1.94,0,3.16-1.74,3.53-3.51l4,.87c-1.27,4.45-4,6.37-8.61,6.37C4.63,19.31,0,16.48,0,9.71S4.48-.19,9-.19a7.29,7.29,0,0,1,7.66,6.62Z"/><path class="cls-1" d="M26.49,12.35c0-3.09-.82-3.93-2.19-3.93s-2.19.84-2.19,3.93.82,3.93,2.19,3.93,2.19-.85,2.19-3.93m-2.19,7c-4.15,0-7.06-2.56-7.06-7a6.65,6.65,0,0,1,7.06-7,6.7,6.7,0,0,1,7.06,7c0,4.2-2.84,7-7.06,7"/><path class="cls-1" d="M32,5.73h4.67V7.8h.05a6,6,0,0,1,4.68-2.41v4.9a6.09,6.09,0,0,0-2.54-.67,3.25,3.25,0,0,0-2.19.89V19H32Z"/><path class="cls-1" d="M42.14,5.73h4.68V7.62a6.38,6.38,0,0,1,4.3-2.24,3.71,3.71,0,0,1,3.81,4V19H50.25V10.58c0-.95-.22-1.92-1.42-1.92a3.41,3.41,0,0,0-2,1.2V19H42.14Z"/><path class="cls-1" d="M64.82,10.68c0-1.39-.6-2.56-1.94-2.56-1.59,0-2.16,1.12-2.19,2.56Zm-4.3,2.54a2.92,2.92,0,0,0,3.08,3.06,3.47,3.47,0,0,0,3-1.94l3.08,1.39a7.85,7.85,0,0,1-7,3.58c-4.15,0-7.06-2.56-7.06-7a6.65,6.65,0,0,1,7.06-7c3.93,0,7,2.29,7,7.46v.37Z"/><rect class="cls-1" x="70.42" y="0.16" width="4.68" height="18.8"/><rect class="cls-1" x="76.96" y="0.16" width="4.68" height="18.8"/><polygon class="cls-2" points="83.59 0.16 97.74 0.16 97.74 4.04 88.97 4.04 88.97 7.45 94.59 7.45 94.59 11.33 88.97 11.33 88.97 14.94 98.02 14.94 98.02 18.96 83.59 18.96 83.59 0.16"/><path class="cls-2" d="M99.21,5.73h4.68V7.62a6.37,6.37,0,0,1,4.3-2.24,3.7,3.7,0,0,1,3.8,4V19h-4.68V10.58c0-.95-.22-1.92-1.42-1.92a3.41,3.41,0,0,0-2,1.2V19H99.21Z"/><path class="cls-2" d="M117.59,9.54a2,2,0,1,0,3.91,0,1.87,1.87,0,0,0-1.87-1.89,2,2,0,0,0-2,1.91m1.07,9.08c-1.64,0-2.61.12-2.61,1,0,.65.5,1.12,3.58,1.12,1.59,0,3.73-.17,3.73-1,0-1-2.39-1.12-4.7-1.12m8.88-10.4c-.55-.32-1.79-.79-2.24-.07a2.21,2.21,0,0,1,.37,1.2c0,2.63-2.06,4.28-5.79,4.28h-1.12c-1.12,0-1.22.27-1.22.6,0,.5.28.55,1.17.62l2.51.17c2.81.2,6.17.77,6.17,3.85,0,1.92-2.06,4.28-8,4.28-3.83,0-6.77-.67-6.77-2.56,0-1.34,1.32-2,2.39-2.29v0a2.32,2.32,0,0,1-1.87-2.14c0-1.57,1.77-2.54,3-2.94v-.05a3.87,3.87,0,0,1-2.76-3.61c0-1.82,1.82-4.13,5.79-4.13a8,8,0,0,1,5,1.34,4.18,4.18,0,0,1,3.31-1.34Z"/><path class="cls-2" d="M128.12,5.73h4.68V19h-4.68Zm0-5.57h4.68V3.89h-4.68Z"/><path class="cls-2" d="M134.41,5.73h4.68V7.62a6.37,6.37,0,0,1,4.3-2.24,3.71,3.71,0,0,1,3.81,4V19h-4.68V10.58c0-.95-.22-1.92-1.42-1.92a3.4,3.4,0,0,0-2,1.2V19h-4.68Z"/><path class="cls-2" d="M157.39,10.68c0-1.39-.6-2.56-1.94-2.56-1.59,0-2.17,1.12-2.19,2.56Zm-4.3,2.54a2.92,2.92,0,0,0,3.08,3.06,3.47,3.47,0,0,0,3-1.94l3.08,1.39a7.85,7.85,0,0,1-7,3.58c-4.15,0-7.06-2.56-7.06-7a6.65,6.65,0,0,1,7.06-7c3.93,0,7,2.29,7,7.46v.37Z"/><path class="cls-2" d="M171.86,10.68c.05-1.39-.6-2.56-1.94-2.56-1.59,0-2.16,1.12-2.19,2.56Zm-4.3,2.54a2.92,2.92,0,0,0,3.09,3.06,3.47,3.47,0,0,0,3-1.94l3.08,1.39a7.84,7.84,0,0,1-7,3.58c-4.15,0-7.06-2.56-7.06-7a6.65,6.65,0,0,1,7.06-7c3.93,0,7,2.29,7,7.46v.37Z"/><path class="cls-2" d="M177.76,5.73h4.68V7.8h0a6,6,0,0,1,4.68-2.41v4.9a6.07,6.07,0,0,0-2.54-.67,3.24,3.24,0,0,0-2.19.89V19h-4.68Z"/><path class="cls-2" d="M188.3,5.73H193V19H188.3Zm0-5.57H193V3.89H188.3Z"/><path class="cls-2" d="M194.6,5.73h4.68V7.62a6.38,6.38,0,0,1,4.3-2.24,3.71,3.71,0,0,1,3.81,4V19h-4.68V10.58c0-.95-.23-1.92-1.42-1.92a3.42,3.42,0,0,0-2,1.2V19H194.6Z"/><path class="cls-2" d="M213,9.54a2,2,0,1,0,3.9,0A1.87,1.87,0,0,0,215,7.62a2,2,0,0,0-2,1.91M214,18.62c-1.64,0-2.61.12-2.61,1,0,.65.5,1.12,3.58,1.12,1.59,0,3.73-.17,3.73-1,0-1-2.39-1.12-4.7-1.12m8.88-10.4c-.55-.32-1.79-.79-2.24-.07a2.22,2.22,0,0,1,.38,1.2c0,2.63-2.06,4.28-5.79,4.28h-1.12c-1.12,0-1.22.27-1.22.6,0,.5.28.55,1.17.62l2.51.17c2.81.2,6.17.77,6.17,3.85,0,1.92-2.06,4.28-8,4.28-3.83,0-6.77-.67-6.77-2.56,0-1.34,1.32-2,2.39-2.29v0a2.33,2.33,0,0,1-1.87-2.14c0-1.57,1.77-2.54,3-2.94v-.05a3.87,3.87,0,0,1-2.76-3.61c0-1.82,1.82-4.13,5.8-4.13a8,8,0,0,1,5,1.34,4.19,4.19,0,0,1,3.31-1.34Z"/><path class="cls-3" d="M1.75,41.72l.08.08a9.4,9.4,0,0,0,.08,1.69c.05.38,1.24,1.82,4.07,1.82s4.55-1.47,4.55-3.87c0-5.08-9.94-.61-9.94-7.51,0-3.46,2.5-5.64,6.75-5.64a11.44,11.44,0,0,1,4.78,1l.08.18a17.24,17.24,0,0,0-.43,3.41l-.08.08-.81-.08-.08-.08c0-1.52,0-1.8-.15-2a5,5,0,0,0-3.56-1.26c-2.73,0-4,1.54-4,3.34,0,2.28,1.21,2.68,5.36,3.31,2.93.43,4.58,1.49,4.58,4.12s-2.15,6.25-7.69,6.25a10.87,10.87,0,0,1-4.7-1.06l-.08-.15a25.11,25.11,0,0,0,.28-3.62l.08-.08Z"/><path class="cls-3" d="M14.36,35.37l.08-.08a14.1,14.1,0,0,0,4.15-1l.35.23c-.1.93-.13,2.48-.13,3.44V42c0,2.07,0,2.93.2,3.16s.68.25,1.64.25l.08.08v.73l-.08.08c-1,0-2-.13-3.19-.13-1,0-2.07.08-3,.13l-.08-.08v-.73l.08-.08c1,0,1.52-.1,1.64-.25s.2-1.09.2-3.16V39c0-2.2,0-2.6-.25-2.73a8.39,8.39,0,0,0-1.59-.1l-.08-.08Zm3.08-6.78a1.62,1.62,0,1,1-1.62,1.62A1.63,1.63,0,0,1,17.45,28.6Z"/><path class="cls-3" d="M20.93,28.82l.08-.08a14.06,14.06,0,0,0,4.15-1l.35.23c-.13.76-.13,1.52-.13,9l1.9-1.82A4.1,4.1,0,0,1,30,34.26c2.15,0,4.48,1.57,4.48,5.23a6.6,6.6,0,0,1-1.85,4.58c-1.37,1-2.43,1.72-3.11,2.17a4.56,4.56,0,0,1-2.15.38,4.38,4.38,0,0,1-3.11-1.06l-1.16,1.06-.4-.33c.13-1.9.18-2.65.18-4.3V32.46c0-2.2,0-2.6-.25-2.73a8.48,8.48,0,0,0-1.59-.1l-.08-.08Zm7.66,7.41a3.56,3.56,0,0,0-3.13,1.95c-.05.2-.08,2-.08,3.94,0,1.47.08,1.57.38,1.92a3.24,3.24,0,0,0,2.73,1.16c1.82,0,3.44-1.59,3.44-4.93C31.93,38.08,31,36.23,28.59,36.23Z"/><path class="cls-3" d="M35.82,28.82l.08-.08a14.06,14.06,0,0,0,4.15-1l.35.23c-.1.94-.13,2.48-.13,3.44V42c0,2.07,0,2.93.2,3.16s.68.25,1.64.25l.08.08v.73l-.08.08c-1,0-2-.13-3.19-.13-1,0-2.07.08-3,.13l-.08-.08v-.73l.08-.08c1,0,1.52-.1,1.64-.25s.2-1.09.2-3.16V32.46c0-2.2,0-2.6-.25-2.73a8.48,8.48,0,0,0-1.59-.1l-.08-.08Z"/><path class="cls-3" d="M54,44.22a13.4,13.4,0,0,0-.56,1.24,8.11,8.11,0,0,1-4.22,1.16c-3.59,0-5.79-2.38-5.79-5.89,0-2.45.58-3.92,1.64-4.65,1.77-1.21,3.06-1.82,4.27-1.82,4.88,0,4.88,3.84,4.88,5.46l-.08.13A13.37,13.37,0,0,1,50,40.3H46.19c.13,2.71,1.39,4.8,4.42,4.8A5.7,5.7,0,0,0,53.67,44Zm-7.86-5c1.31.08,2.28.1,3.24.1a16.45,16.45,0,0,0,2.22-.1c0-2.1-.51-4-2.68-4C46.47,35.22,46.11,38.1,46.11,39.24Z"/><path class="cls-3" d="M63.56,34.67l.08-.08c.71.05,1.47.13,2.25.13s1.59-.08,2.33-.13l.08.08v.73l-.08.08a1.43,1.43,0,0,0-1.47,1c-1,2-3.26,7-4.9,11-2,4.88-2.91,5.81-4.65,5.81a4.81,4.81,0,0,1-1.69-.33,15.1,15.1,0,0,0,.51-2l.35-.15c.51.58.81.73,1.29.73,1.16,0,2-1.24,3.31-4.73L56.3,36.11c-.15-.38-.35-.53-1.34-.63l-.08-.08v-.73l.08-.08c.94.05,1.95.13,3,.13s1.92-.08,2.81-.13l.08.08v.73l-.08.08c-1.09.13-1.52.18-1.52.68,0,.23.13.53,3.08,7.48,2.78-6.67,3-7.23,3-7.64s-.33-.53-1.62-.53l-.08-.08Z"/><path class="cls-3" d="M76.17,41.72l.08.08a9.4,9.4,0,0,0,.08,1.69c.05.38,1.24,1.82,4.07,1.82s4.55-1.47,4.55-3.87c0-5.08-9.94-.61-9.94-7.51,0-3.46,2.5-5.64,6.75-5.64a11.44,11.44,0,0,1,4.78,1l.08.18a17.25,17.25,0,0,0-.43,3.41l-.08.08-.81-.08-.08-.08c0-1.52,0-1.8-.15-2a5,5,0,0,0-3.56-1.26c-2.73,0-4,1.54-4,3.34,0,2.28,1.21,2.68,5.36,3.31,2.93.43,4.58,1.49,4.58,4.12s-2.15,6.25-7.69,6.25a10.87,10.87,0,0,1-4.7-1.06L75,45.41a25.1,25.1,0,0,0,.28-3.62l.08-.08Z"/><path class="cls-3" d="M99.13,44.47c-.18.43-.35.86-.48,1.26a7.69,7.69,0,0,1-3.82.88c-3.08,0-5.59-1.92-5.59-5.71,0-2.68.94-4.07,2.33-4.88,2.86-1.67,3.08-1.77,4.42-1.77a6.39,6.39,0,0,1,3,.61L99,35a24.38,24.38,0,0,0-.46,3.34l-.13.08h-.56l-.13-.08a7.62,7.62,0,0,0-.23-1.49,4.22,4.22,0,0,0-2.68-1.09c-1.82,0-3,1.11-3,3.34,0,3.74,1.62,6,4.32,6a5.39,5.39,0,0,0,2.73-.81Z"/><path class="cls-3" d="M106.78,34.56a4.45,4.45,0,0,1,1.82-.3c2.78,0,3.92,1.77,3.92,4,0,1.44-.08,3.72-.08,6.12,0,.91.2,1,1.57,1l.13.13v.63l-.13.13c-.68,0-1.34-.13-2-.13s-1.34.08-2,.13l-.28-.23a43.07,43.07,0,0,0,.23-5.56c0-2.5,0-4.27-2.4-4.27-1.37,0-2.93.83-2.93,1.9V42c0,2.07,0,2.93.2,3.16s.68.25,1.64.25l.08.08v.73l-.08.08c-1,0-2-.13-3.19-.13-1,0-2.07.08-3,.13l-.08-.08v-.73l.08-.08c1,0,1.52-.1,1.64-.25s.2-1.09.2-3.16V32.46c0-2.2,0-2.6-.25-2.73a8.47,8.47,0,0,0-1.59-.1l-.08-.08v-.73l.08-.08a14.06,14.06,0,0,0,4.15-1l.35.23c-.1.94-.13,2.48-.13,3.44v5.13Z"/><path class="cls-3" d="M121.42,34.26c4.42,0,6,3.29,6,6.09a6.06,6.06,0,0,1-6.22,6.27c-4.07,0-5.82-2.78-5.82-5.87C115.35,36.74,117.68,34.26,121.42,34.26Zm-.18,1c-2.15,0-3.11,1.67-3.11,4.91s1.21,5.54,3.34,5.54,3.14-1.77,3.14-4.55C124.61,37.22,123.14,35.22,121.24,35.22Z"/><path class="cls-3" d="M135,34.26c4.42,0,6,3.29,6,6.09a6.06,6.06,0,0,1-6.22,6.27c-4.07,0-5.82-2.78-5.82-5.87C128.9,36.74,131.23,34.26,135,34.26Zm-.18,1c-2.15,0-3.11,1.67-3.11,4.91s1.21,5.54,3.34,5.54,3.14-1.77,3.14-4.55C138.16,37.22,136.69,35.22,134.79,35.22Z"/><path class="cls-3" d="M142,28.82l.08-.08a14.06,14.06,0,0,0,4.15-1l.35.23c-.1.94-.13,2.48-.13,3.44V42c0,2.07,0,2.93.2,3.16s.68.25,1.64.25l.08.08v.73l-.08.08c-1,0-2-.13-3.19-.13-1,0-2.07.08-3,.13l-.08-.08v-.73l.08-.08c1,0,1.52-.1,1.64-.25s.2-1.09.2-3.16V32.46c0-2.2,0-2.6-.25-2.73a8.48,8.48,0,0,0-1.59-.1l-.08-.08Z"/><path class="cls-3" d="M161.31,34.26c4.42,0,6,3.29,6,6.09a6.06,6.06,0,0,1-6.22,6.27c-4.07,0-5.82-2.78-5.82-5.87C155.25,36.74,157.57,34.26,161.31,34.26Zm-.18,1c-2.15,0-3.11,1.67-3.11,4.91s1.21,5.54,3.34,5.54,3.14-1.77,3.14-4.55C164.5,37.22,163,35.22,161.14,35.22Z"/><path class="cls-3" d="M168.29,36.13l.05-.1,1.72-.88q.15-.08.15-.61c0-2,0-2.68,1-3.84,2.38-2.81,3-3,4.15-3a4.5,4.5,0,0,1,1.42.23,18.38,18.38,0,0,0-.2,2.33l-.28.15a2.81,2.81,0,0,0-2-.88c-.91,0-1.59.4-1.59,1.92v3.67A18.74,18.74,0,0,0,176,35l.13.18a9.56,9.56,0,0,0-.15,1.26l-.1.08c-1.06,0-2.07-.05-3.08-.05V42c0,2.07,0,2.93.2,3.16s.68.25,2.1.25l.08.08v.73l-.08.08c-1.42,0-2.45-.13-3.64-.13-1,0-2.07.08-3.19.13l-.08-.08v-.73l.08-.08c1.11,0,1.67-.1,1.79-.25s.2-1.09.2-3.16V38.18c0-.81,0-1.37,0-1.69-.2,0-1.26.1-1.87.15l-.08-.08Z"/><path class="cls-3" d="M182.19,28.7l.08-.08c1.26.05,1.87.13,3,.13a21.23,21.23,0,0,0,2.12-.13c2.35,5.16,5.59,11.48,6.65,13.6,2.3-4.53,4.53-9,6.73-13.6.68.05,1.59.13,2.33.13s1.77-.08,2.48-.13l.08.08v.73l-.08.08a3.83,3.83,0,0,0-1.95.33c-.28.25-.35.48-.35,6.35v2.55c0,5.87.08,6.09.35,6.35a3.83,3.83,0,0,0,1.95.33l.08.08v.73l-.08.08c-1.26,0-2.48-.13-3.69-.13s-2.43.08-3.69.13l-.08-.08v-.73l.08-.08a3.83,3.83,0,0,0,1.95-.33c.28-.25.35-.48.35-6.35V32.52h-.05c-2.43,4.68-6.4,12.39-7,14.11h-.53c-.68-2-5.69-11.53-7-14.11h-.05v6.22c0,5.87.08,6.09.35,6.35a3.69,3.69,0,0,0,1.87.33l.08.08v.73l-.08.08c-.93,0-1.9-.13-2.83-.13s-2,.08-3.06.13l-.08-.08v-.73l.08-.08a3.84,3.84,0,0,0,1.95-.33c.28-.25.35-.48.35-6.35V36.18c0-5.87-.08-6.09-.35-6.35a3.84,3.84,0,0,0-1.95-.33l-.08-.08Z"/><path class="cls-3" d="M217.54,44.22a13.53,13.53,0,0,0-.56,1.24,8.11,8.11,0,0,1-4.22,1.16c-3.59,0-5.79-2.38-5.79-5.89,0-2.45.58-3.92,1.64-4.65,1.77-1.21,3.06-1.82,4.27-1.82,4.88,0,4.88,3.84,4.88,5.46l-.08.13a13.37,13.37,0,0,1-4.17.45h-3.77c.13,2.71,1.39,4.8,4.42,4.8A5.7,5.7,0,0,0,217.23,44Zm-7.86-5c1.31.08,2.28.1,3.24.1a16.45,16.45,0,0,0,2.22-.1c0-2.1-.51-4-2.68-4C210,35.22,209.67,38.1,209.67,39.24Z"/><path class="cls-3" d="M229.32,44.47c-.18.43-.35.86-.48,1.26a7.69,7.69,0,0,1-3.82.88c-3.08,0-5.59-1.92-5.59-5.71,0-2.68.94-4.07,2.33-4.88,2.86-1.67,3.08-1.77,4.42-1.77a6.39,6.39,0,0,1,3,.61l.08.15a24.38,24.38,0,0,0-.46,3.34l-.13.08h-.56l-.13-.08a7.58,7.58,0,0,0-.23-1.49A4.22,4.22,0,0,0,225,35.78c-1.82,0-3,1.11-3,3.34,0,3.74,1.62,6,4.32,6a5.39,5.39,0,0,0,2.73-.81Z"/><path class="cls-3" d="M237,34.56a4.45,4.45,0,0,1,1.82-.3c2.78,0,3.92,1.77,3.92,4,0,1.44-.08,3.72-.08,6.12,0,.91.2,1,1.57,1l.13.13v.63l-.13.13c-.68,0-1.34-.13-2-.13s-1.34.08-2,.13l-.28-.23a43.07,43.07,0,0,0,.23-5.56c0-2.5,0-4.27-2.4-4.27-1.37,0-2.93.83-2.93,1.9V42c0,2.07,0,2.93.2,3.16s.68.25,1.64.25l.08.08v.73l-.08.08c-1,0-2-.13-3.19-.13-1,0-2.07.08-3,.13l-.08-.08v-.73l.08-.08c1,0,1.52-.1,1.64-.25s.2-1.09.2-3.16V32.46c0-2.2,0-2.6-.25-2.73a8.47,8.47,0,0,0-1.59-.1l-.08-.08v-.73l.08-.08a14.06,14.06,0,0,0,4.15-1l.35.23c-.1.94-.13,2.48-.13,3.44v5.13Z"/><path class="cls-3" d="M246.73,36.08c2.43-1.57,3-1.82,4.15-1.82,2.25,0,4.45.91,4.45,3.64,0,1.69,0,2.93,0,3.89a20.91,20.91,0,0,0,.08,3.24c.15.33.51.38,1.39.38l.08.08v.73l-.08.08a16.3,16.3,0,0,0-2-.13,16.92,16.92,0,0,0-1.95.13l-.15-.13c0-.68.1-1.34.1-1.95-.81.56-2.33,1.82-2.55,2a2.65,2.65,0,0,1-1.64.4,2.81,2.81,0,0,1-3.06-3.08c0-2.35.68-2.93,7.26-4.32,0-1.21-.28-3.13-2.86-3.13a4.3,4.3,0,0,0-2,.48,6.25,6.25,0,0,0-.56,1.31l-.13.05-.56-.18-.08-.1Zm6.07,4c-4.3,1-4.63,1.64-4.63,2.81a1.7,1.7,0,0,0,1.8,1.9c.88,0,1.69-.56,2.83-1.72Z"/><path class="cls-3" d="M264.51,34.56a4.45,4.45,0,0,1,1.82-.3c2.78,0,3.92,1.77,3.92,4,0,1.44-.08,3.72-.08,6.12,0,.91.2,1,1.57,1l.13.13v.63l-.13.13c-.68,0-1.34-.13-2-.13s-1.34.08-2,.13l-.28-.23a43.07,43.07,0,0,0,.23-5.56c0-2.5,0-4.27-2.4-4.27-1.37,0-2.93.83-2.93,1.9V42c0,2.07,0,2.93.2,3.16s.68.25,1.64.25l.08.08v.73l-.08.08c-1,0-2-.13-3.19-.13-1,0-2.07.08-3,.13l-.08-.08v-.73l.08-.08c1,0,1.52-.1,1.64-.25s.2-1.09.2-3.16V39c0-2.2,0-2.6-.25-2.73a8.39,8.39,0,0,0-1.59-.1l-.08-.08v-.73l.08-.08a14.09,14.09,0,0,0,4.15-1l.25.18c-.05.58-.1,1.29-.1,2.15Z"/><path class="cls-3" d="M272.62,35.37l.08-.08a14.1,14.1,0,0,0,4.15-1l.35.23c-.1.93-.13,2.48-.13,3.44V42c0,2.07,0,2.93.2,3.16s.68.25,1.64.25l.08.08v.73l-.08.08c-1,0-2-.13-3.19-.13-1,0-2.07.08-3,.13l-.08-.08v-.73l.08-.08c1,0,1.52-.1,1.64-.25s.2-1.09.2-3.16V39c0-2.2,0-2.6-.25-2.73a8.39,8.39,0,0,0-1.59-.1l-.08-.08Zm3.08-6.78a1.62,1.62,0,1,1-1.62,1.62A1.63,1.63,0,0,1,275.7,28.6Z"/><path class="cls-3" d="M289.94,44.47c-.18.43-.35.86-.48,1.26a7.69,7.69,0,0,1-3.82.88c-3.08,0-5.59-1.92-5.59-5.71,0-2.68.94-4.07,2.33-4.88,2.86-1.67,3.08-1.77,4.42-1.77a6.39,6.39,0,0,1,3,.61l.08.15a24.38,24.38,0,0,0-.46,3.34l-.13.08h-.56l-.13-.08a7.62,7.62,0,0,0-.23-1.49,4.22,4.22,0,0,0-2.68-1.09c-1.82,0-3,1.11-3,3.34,0,3.74,1.62,6,4.32,6a5.39,5.39,0,0,0,2.73-.81Z"/><path class="cls-3" d="M292.44,36.08c2.43-1.57,3-1.82,4.15-1.82,2.25,0,4.45.91,4.45,3.64,0,1.69,0,2.93,0,3.89a20.91,20.91,0,0,0,.08,3.24c.15.33.51.38,1.39.38l.08.08v.73l-.08.08a16.3,16.3,0,0,0-2-.13,16.92,16.92,0,0,0-1.95.13l-.15-.13c0-.68.1-1.34.1-1.95-.81.56-2.33,1.82-2.55,2a2.65,2.65,0,0,1-1.64.4,2.81,2.81,0,0,1-3.06-3.08c0-2.35.68-2.93,7.26-4.32,0-1.21-.28-3.13-2.86-3.13a4.3,4.3,0,0,0-2,.48,6.26,6.26,0,0,0-.56,1.31l-.13.05-.56-.18-.08-.1Zm6.07,4c-4.3,1-4.63,1.64-4.63,2.81a1.7,1.7,0,0,0,1.8,1.9c.88,0,1.69-.56,2.83-1.72Z"/><path class="cls-3" d="M303.41,28.82l.08-.08a14.06,14.06,0,0,0,4.15-1l.35.23c-.1.94-.13,2.48-.13,3.44V42c0,2.07,0,2.93.2,3.16s.68.25,1.64.25l.08.08v.73l-.08.08c-1,0-2-.13-3.19-.13-1,0-2.07.08-3,.13l-.08-.08v-.73l.08-.08c1,0,1.52-.1,1.64-.25s.2-1.09.2-3.16V32.46c0-2.2,0-2.6-.25-2.73a8.47,8.47,0,0,0-1.59-.1l-.08-.08Z"/><path class="cls-3" d="M1.83,62.57C4.26,61,4.86,60.75,6,60.75c2.25,0,4.45.91,4.45,3.64,0,1.69,0,2.93,0,3.89a20.78,20.78,0,0,0,.08,3.24c.15.33.51.38,1.39.38l.08.08v.73l-.08.08a16.3,16.3,0,0,0-2-.13,16.9,16.9,0,0,0-1.95.13l-.15-.13c0-.68.1-1.34.1-1.95-.81.56-2.33,1.82-2.55,2a2.64,2.64,0,0,1-1.64.4A2.81,2.81,0,0,1,.64,70c0-2.35.68-2.93,7.26-4.32,0-1.21-.28-3.13-2.86-3.13a4.3,4.3,0,0,0-2,.48,6.3,6.3,0,0,0-.56,1.31l-.12.05-.56-.18-.08-.1Zm6.07,4c-4.3,1-4.63,1.64-4.63,2.81a1.7,1.7,0,0,0,1.79,1.9c.88,0,1.69-.56,2.83-1.72Z"/><path class="cls-3" d="M19.6,61.05a4.47,4.47,0,0,1,1.82-.3c2.78,0,3.92,1.77,3.92,4,0,1.44-.08,3.72-.08,6.12,0,.91.2,1,1.57,1L27,72v.63l-.13.13c-.68,0-1.34-.13-2-.13s-1.34.08-2,.13l-.28-.23A42.88,42.88,0,0,0,22.74,67c0-2.5,0-4.27-2.4-4.27-1.37,0-2.93.83-2.93,1.9v3.87c0,2.07,0,2.93.2,3.16s.68.25,1.64.25l.08.08v.73l-.08.08c-1,0-2-.13-3.19-.13-1,0-2.07.08-3,.13L13,72.71V72L13,71.9c1,0,1.52-.1,1.64-.25s.2-1.09.2-3.16v-3c0-2.2,0-2.6-.25-2.73a8.38,8.38,0,0,0-1.59-.1L13,62.6v-.73l.08-.08a14.11,14.11,0,0,0,4.15-1l.25.18c-.05.58-.1,1.29-.1,2.15Z"/><path class="cls-3" d="M35.81,55.31l.08-.08a14.06,14.06,0,0,0,4.15-1l.35.23c-.1.94-.12,2.48-.12,3.44V68.49c0,2.07,0,2.93.2,3.16s.68.25,1.64.25l.07.08v.73l-.07.08c-.71,0-1.42-.13-2.15-.13s-1.47.08-2.22.13l-.15-.13a12.06,12.06,0,0,0,.15-2c-1,.73-1.74,1.44-2.58,2.15a5.13,5.13,0,0,1-1.82.3c-2.48,0-4.86-1.87-4.86-5.89,0-2,.4-3.54,2-4.58,2.88-1.85,3.39-1.9,4.47-1.9a4.59,4.59,0,0,1,2.76.88V59c0-2.2,0-2.6-.25-2.73a8.49,8.49,0,0,0-1.59-.1L35.81,56Zm1.85,8.52a4.17,4.17,0,0,0-3.36-1.77c-1.85,0-3.29,1.52-3.29,4.4s1.64,4.83,3.67,4.83a3.25,3.25,0,0,0,3.06-3.46C37.73,65.81,37.68,64.87,37.65,63.83Z"/><path class="cls-3" d="M59.75,72l.07-.08c1.85,0,1.9-.15,1.9-.4s-.25-1-1.69-4.53H53.35c-1.54,3.51-1.59,3.89-1.59,4.22,0,.61.66.63,2,.71l.08.08v.73l-.08.08c-.91,0-1.92-.13-2.91-.13s-2,.08-2.91.13l-.08-.08V72L48,71.9c1.54-.05,1.62-.18,2.33-1.69,2.25-4.8,4.85-10.8,6.63-15.09H58c5.56,13.15,6.32,15,7,16.13.28.48.51.63,1.64.66l.07.08v.73l-.07.08c-1.09,0-2.25-.13-3.41-.13s-2.33.08-3.41.13l-.07-.08ZM56.69,59l-2.83,6.75h5.66Z"/><path class="cls-3" d="M78.33,70.71a13.4,13.4,0,0,0-.56,1.24,8.11,8.11,0,0,1-4.22,1.16c-3.59,0-5.79-2.38-5.79-5.89,0-2.45.58-3.92,1.64-4.65,1.77-1.21,3.06-1.82,4.27-1.82,4.88,0,4.88,3.84,4.88,5.46l-.08.13a13.37,13.37,0,0,1-4.17.45H70.54c.13,2.71,1.39,4.8,4.42,4.8A5.7,5.7,0,0,0,78,70.48Zm-7.86-5c1.31.08,2.28.1,3.24.1a16.45,16.45,0,0,0,2.22-.1c0-2.1-.51-4-2.68-4C70.82,61.71,70.46,64.59,70.46,65.73Z"/><path class="cls-3" d="M79.77,61.86l.08-.08a13,13,0,0,0,4.22-1l.36.23c-.08.76-.15,1.92-.15,2.53a11.51,11.51,0,0,0,.94-1c.88-1.06,1.62-1.72,2.86-1.72a3.39,3.39,0,0,1,1.11.18l.13.15A18.84,18.84,0,0,0,89,64.26h-.46c-.3-.71-.63-1-1.77-1a2.29,2.29,0,0,0-2.43,2.45v2.81c0,2.07,0,2.93.2,3.16a4.45,4.45,0,0,0,2.1.25l.08.08v.73l-.08.08c-1.11,0-2.3-.13-3.64-.13-1,0-2.07.08-3.19.13l-.08-.08V72l.08-.08c1.11,0,1.67-.1,1.79-.25s.2-1.09.2-3.16v-3c0-2.2,0-2.6-.25-2.73a9.22,9.22,0,0,0-1.74-.1l-.08-.08Z"/><path class="cls-3" d="M96.07,60.75c4.42,0,6,3.29,6,6.09a6.06,6.06,0,0,1-6.22,6.27c-4.07,0-5.81-2.78-5.81-5.87C90,63.23,92.33,60.75,96.07,60.75Zm-.18,1c-2.15,0-3.11,1.67-3.11,4.91s1.21,5.54,3.34,5.54,3.14-1.77,3.14-4.55C99.26,63.71,97.79,61.71,95.9,61.71Z"/><path class="cls-3" d="M103.53,72.33a26.54,26.54,0,0,0,.25-3.26l.08-.08h.81l.08.08A4.42,4.42,0,0,0,105,71a4.88,4.88,0,0,0,3,1.14,2.32,2.32,0,0,0,2.6-2.38c0-3.19-7-.4-7-5.26,0-1.82,1.49-3.77,4.65-3.77a12.81,12.81,0,0,1,3.54.58l.2.3a13,13,0,0,0-.15,2.6l-.07.08H111l-.07-.08a4.49,4.49,0,0,0-.2-1.54,4,4,0,0,0-2.71-1,1.94,1.94,0,0,0-2.17,1.95c0,1.29.78,1.54,3.46,2,2.25.4,3.49,1.26,3.49,3.14,0,2.76-2.45,4.3-5.33,4.3a15.9,15.9,0,0,1-3.79-.56Z"/><path class="cls-3" d="M114,61.86l.08-.08a14.11,14.11,0,0,0,4.15-1l.28.23a17.61,17.61,0,0,0-.13,2.33l1.9-1.74a4.25,4.25,0,0,1,2.7-.81c2.15,0,4.45,1.57,4.45,5.23a6.42,6.42,0,0,1-1.82,4.58c-.38.3-1.09.71-1.62,1.09s-1.06.81-1.49,1.09a3.93,3.93,0,0,1-1.77.38,3.44,3.44,0,0,1-2.28-.68v2.81c0,2.07,0,2.93.2,3.16s.68.25,1.64.25l.08.08v.73l-.08.08c-1-.05-2-.13-3.19-.13-1,0-2.07.08-3.19.13l-.08-.08v-.73l.08-.08c1.11,0,1.67-.1,1.79-.25s.2-1.09.2-3.16V65.5c0-2.2,0-2.6-.25-2.73a8.38,8.38,0,0,0-1.59-.1L114,62.6Zm7.58.86a3.56,3.56,0,0,0-3.13,1.95c-.05.2-.1,2-.1,3.94,0,1.39.08,1.54.41,1.92a3.24,3.24,0,0,0,2.73,1.16c1.82,0,3.41-1.59,3.41-4.93C124.87,64.57,124,62.72,121.55,62.72Z"/><path class="cls-3" d="M130.4,62.57c2.43-1.57,3-1.82,4.15-1.82,2.25,0,4.45.91,4.45,3.64,0,1.69,0,2.93,0,3.89a21.31,21.31,0,0,0,.07,3.24c.15.33.51.38,1.39.38l.08.08v.73l-.08.08a16.27,16.27,0,0,0-2-.13,16.93,16.93,0,0,0-1.95.13l-.15-.13c0-.68.1-1.34.1-1.95-.81.56-2.33,1.82-2.55,2a2.65,2.65,0,0,1-1.64.4A2.81,2.81,0,0,1,129.21,70c0-2.35.68-2.93,7.26-4.32,0-1.21-.28-3.13-2.86-3.13a4.3,4.3,0,0,0-2,.48,6.3,6.3,0,0,0-.55,1.31l-.13.05-.56-.18-.08-.1Zm6.07,4c-4.3,1-4.63,1.64-4.63,2.81a1.7,1.7,0,0,0,1.79,1.9c.88,0,1.69-.56,2.83-1.72Z"/><path class="cls-3" d="M151.71,71c-.18.43-.35.86-.48,1.26a7.69,7.69,0,0,1-3.82.88c-3.08,0-5.59-1.92-5.59-5.71,0-2.68.94-4.07,2.33-4.88,2.86-1.67,3.09-1.77,4.43-1.77a6.39,6.39,0,0,1,3,.61l.08.15a24.61,24.61,0,0,0-.46,3.34l-.12.08h-.56l-.13-.08a7.58,7.58,0,0,0-.23-1.49,4.21,4.21,0,0,0-2.68-1.09c-1.82,0-3,1.11-3,3.34,0,3.74,1.62,6,4.32,6a5.38,5.38,0,0,0,2.73-.81Z"/><path class="cls-3" d="M163.75,70.71c-.2.41-.4.83-.56,1.24A8.1,8.1,0,0,1,159,73.11c-3.59,0-5.79-2.38-5.79-5.89,0-2.45.58-3.92,1.64-4.65,1.77-1.21,3.06-1.82,4.27-1.82,4.88,0,4.88,3.84,4.88,5.46l-.08.13a13.38,13.38,0,0,1-4.17.45H156c.13,2.71,1.39,4.8,4.43,4.8a5.7,5.7,0,0,0,3.06-1.11Zm-7.86-5c1.31.08,2.28.1,3.24.1a16.44,16.44,0,0,0,2.22-.1c0-2.1-.5-4-2.68-4C156.24,61.71,155.88,64.59,155.88,65.73Z"/><path class="cls-3" d="M171.13,55.19l.08-.08c1.26.05,2.48.13,3.69.13,4.68,0,7.89-.08,9.53-.13l.15.13c-.13,1.32-.23,2.66-.3,3.89l-.07.08h-.73l-.08-.08a7,7,0,0,0-.23-2.3,15,15,0,0,0-4.3-.4c-1,0-1.95.08-2.45.1-.12,2.22-.12,4.4-.12,6.57,1,0,2,.05,3,.05,1.39,0,2.25-.08,2.4-.35a4.72,4.72,0,0,0,.33-1.75l.08-.08h.66l.08.08c0,1-.05,2-.05,3,0,.68.05,1.69.05,2.58l-.08.08h-.66l-.08-.08a7.18,7.18,0,0,0-.35-1.82c-.13-.33-1-.46-3.11-.46-.86,0-1.52,0-2.22.05,0,2.35,0,4.73.05,7.05,1.34,0,6.55,0,7.1-.33a7,7,0,0,0,.66-2.6l.08-.08H185l.08.08c-.1,1.06-.23,2.73-.28,4.12l-.2.13c-3.36-.1-7.18-.13-10.16-.13a18.62,18.62,0,0,0-2.18.13l-.07-.08v-.48l.1-.13c.84-.38,1-.5,1.06-.66s.18-.51.18-8.77c0-5.87-.08-6.09-.35-6.35a3.84,3.84,0,0,0-1.95-.33l-.08-.08Z"/><path class="cls-3" d="M193.22,61.05a4.45,4.45,0,0,1,1.82-.3c2.78,0,3.92,1.77,3.92,4,0,1.44-.08,3.72-.08,6.12,0,.91.2,1,1.57,1l.13.13v.63l-.13.13c-.68,0-1.34-.13-2-.13s-1.34.08-2,.13l-.28-.23a43.23,43.23,0,0,0,.23-5.56c0-2.5,0-4.27-2.4-4.27-1.37,0-2.93.83-2.93,1.9v3.87c0,2.07,0,2.93.2,3.16s.68.25,1.64.25l.08.08v.73l-.08.08c-1,0-2-.13-3.19-.13-1,0-2.07.08-3,.13l-.08-.08V72l.08-.08c1,0,1.52-.1,1.64-.25s.2-1.09.2-3.16v-3c0-2.2,0-2.6-.25-2.73a8.4,8.4,0,0,0-1.59-.1l-.08-.08v-.73l.08-.08a14.09,14.09,0,0,0,4.15-1l.25.18c-.05.58-.1,1.29-.1,2.15Z"/><path class="cls-3" d="M214.76,61.86c-.25.4-.51.81-.73,1.21-.3,0-.66,0-1,0s-.76,0-1.06,0a5,5,0,0,1,.33,1.69c0,2.73-3.06,4.35-5.23,4.35l-.81,0c-.86.71-1,1-1,1.29,0,.53.3.63,2,.63,1,0,2-.08,3.19-.08,2.2,0,3.62,1.16,3.62,3.14,0,3.08-3.06,5.33-7,5.33-4.22,0-5.34-2.3-5.34-3.59a2.76,2.76,0,0,1,.73-1.85c.66-.33,1.26-.68,1.85-1-.94-.3-1.29-.73-1.29-1.47a1.88,1.88,0,0,1,.38-1.19c.63-.46,1.24-.91,1.79-1.39a3.39,3.39,0,0,1-2.91-3.31A4.09,4.09,0,0,1,204,62.09a7.5,7.5,0,0,1,4-1.34,4.65,4.65,0,0,1,3.11,1c1.42,0,2.55,0,3.49-.1Zm-6.17,11a18.35,18.35,0,0,0-3,.18c-1.19.71-1.62,1.34-1.62,2.4,0,2,1.57,3,3.36,3,2.65,0,4.5-1.29,4.5-3.44C211.86,73.67,210.89,72.91,208.59,72.91Zm-1.39-11.1a2.36,2.36,0,0,0-2.43,2.5c0,2.81,1.42,3.84,2.43,3.84a2.33,2.33,0,0,0,2.58-2.53C209.78,63.4,208.67,61.81,207.2,61.81Z"/><path class="cls-3" d="M214.89,61.86l.08-.08a14.11,14.11,0,0,0,4.15-1l.35.23c-.1.93-.13,2.48-.13,3.44v4.07c0,2.07,0,2.93.2,3.16s.68.25,1.64.25l.08.08v.73l-.08.08c-1,0-2-.13-3.19-.13-1,0-2.07.08-3,.13l-.08-.08V72l.08-.08c1,0,1.52-.1,1.64-.25s.2-1.09.2-3.16v-3c0-2.2,0-2.6-.25-2.73a8.38,8.38,0,0,0-1.59-.1l-.08-.08ZM218,55.09a1.62,1.62,0,1,1-1.62,1.62A1.63,1.63,0,0,1,218,55.09Z"/><path class="cls-3" d="M228.67,61.05a4.45,4.45,0,0,1,1.82-.3c2.78,0,3.92,1.77,3.92,4,0,1.44-.08,3.72-.08,6.12,0,.91.2,1,1.57,1L236,72v.63l-.12.13c-.68,0-1.34-.13-2-.13s-1.34.08-2,.13l-.28-.23A43.24,43.24,0,0,0,231.8,67c0-2.5,0-4.27-2.4-4.27-1.37,0-2.93.83-2.93,1.9v3.87c0,2.07,0,2.93.2,3.16s.68.25,1.64.25l.08.08v.73l-.08.08c-1,0-2-.13-3.19-.13-1,0-2.07.08-3,.13l-.07-.08V72l.07-.08c1,0,1.52-.1,1.64-.25s.2-1.09.2-3.16v-3c0-2.2,0-2.6-.25-2.73a8.4,8.4,0,0,0-1.59-.1L222,62.6v-.73l.07-.08a14.08,14.08,0,0,0,4.15-1l.25.18c-.05.58-.1,1.29-.1,2.15Z"/><path class="cls-3" d="M248,70.71c-.2.41-.4.83-.56,1.24a8.1,8.1,0,0,1-4.22,1.16c-3.59,0-5.79-2.38-5.79-5.89,0-2.45.58-3.92,1.64-4.65,1.77-1.21,3.06-1.82,4.27-1.82,4.88,0,4.88,3.84,4.88,5.46l-.08.13a13.38,13.38,0,0,1-4.17.45h-3.77c.13,2.71,1.39,4.8,4.43,4.8a5.7,5.7,0,0,0,3.06-1.11Zm-7.86-5c1.31.08,2.28.1,3.24.1a16.45,16.45,0,0,0,2.22-.1c0-2.1-.5-4-2.68-4C240.45,61.71,240.09,64.59,240.09,65.73Z"/><path class="cls-3" d="M260.57,70.71a13.4,13.4,0,0,0-.56,1.24,8.11,8.11,0,0,1-4.22,1.16c-3.59,0-5.79-2.38-5.79-5.89,0-2.45.58-3.92,1.64-4.65,1.77-1.21,3.06-1.82,4.27-1.82,4.88,0,4.88,3.84,4.88,5.46l-.08.13a13.38,13.38,0,0,1-4.17.45h-3.77c.13,2.71,1.39,4.8,4.42,4.8a5.71,5.71,0,0,0,3.06-1.11Zm-7.86-5c1.31.08,2.28.1,3.24.1a16.45,16.45,0,0,0,2.22-.1c0-2.1-.51-4-2.68-4C253.06,61.71,252.71,64.59,252.71,65.73Z"/><path class="cls-3" d="M262,61.86l.08-.08a13,13,0,0,0,4.22-1l.35.23c-.08.76-.15,1.92-.15,2.53a11.49,11.49,0,0,0,.94-1c.88-1.06,1.62-1.72,2.86-1.72a3.41,3.41,0,0,1,1.11.18l.13.15a19.06,19.06,0,0,0-.28,3.19h-.46c-.3-.71-.63-1-1.77-1a2.29,2.29,0,0,0-2.43,2.45v2.81c0,2.07,0,2.93.2,3.16a4.44,4.44,0,0,0,2.1.25L269,72v.73l-.08.08c-1.11,0-2.3-.13-3.64-.13-1,0-2.07.08-3.19.13l-.08-.08V72l.08-.08c1.11,0,1.67-.1,1.79-.25s.2-1.09.2-3.16v-3c0-2.2,0-2.6-.25-2.73a9.22,9.22,0,0,0-1.74-.1L262,62.6Z"/><path class="cls-3" d="M271.79,61.86l.08-.08a14.09,14.09,0,0,0,4.15-1l.35.23c-.1.93-.12,2.48-.12,3.44v4.07c0,2.07,0,2.93.2,3.16s.68.25,1.64.25l.07.08v.73l-.07.08c-1,0-2-.13-3.19-.13-1,0-2.07.08-3,.13l-.08-.08V72l.08-.08c1,0,1.52-.1,1.64-.25s.2-1.09.2-3.16v-3c0-2.2,0-2.6-.25-2.73a8.4,8.4,0,0,0-1.59-.1l-.08-.08Zm3.08-6.78a1.62,1.62,0,1,1-1.62,1.62A1.63,1.63,0,0,1,274.88,55.09Z"/><path class="cls-3" d="M285.57,61.05a4.47,4.47,0,0,1,1.82-.3c2.78,0,3.92,1.77,3.92,4,0,1.44-.08,3.72-.08,6.12,0,.91.2,1,1.57,1l.13.13v.63l-.13.13c-.68,0-1.34-.13-2-.13s-1.34.08-2,.13l-.28-.23a42.86,42.86,0,0,0,.23-5.56c0-2.5,0-4.27-2.4-4.27-1.37,0-2.93.83-2.93,1.9v3.87c0,2.07,0,2.93.2,3.16s.68.25,1.64.25l.08.08v.73l-.08.08c-1,0-2-.13-3.19-.13-1,0-2.07.08-3,.13l-.08-.08V72l.08-.08c1,0,1.52-.1,1.64-.25s.2-1.09.2-3.16v-3c0-2.2,0-2.6-.25-2.73a8.38,8.38,0,0,0-1.59-.1l-.08-.08v-.73l.08-.08a14.11,14.11,0,0,0,4.15-1l.25.18c-.05.58-.1,1.29-.1,2.15Z"/><path class="cls-3" d="M307.11,61.86c-.25.4-.51.81-.73,1.21-.3,0-.66,0-1,0s-.76,0-1.06,0a5,5,0,0,1,.33,1.69c0,2.73-3.06,4.35-5.23,4.35l-.81,0c-.86.71-1,1-1,1.29,0,.53.3.63,2,.63,1,0,2-.08,3.19-.08,2.2,0,3.62,1.16,3.62,3.14,0,3.08-3.06,5.33-7,5.33-4.22,0-5.33-2.3-5.33-3.59a2.76,2.76,0,0,1,.73-1.85c.66-.33,1.26-.68,1.85-1-.94-.3-1.29-.73-1.29-1.47a1.89,1.89,0,0,1,.38-1.19c.63-.46,1.24-.91,1.79-1.39a3.39,3.39,0,0,1-2.91-3.31,4.09,4.09,0,0,1,1.67-3.49,7.48,7.48,0,0,1,4-1.34,4.66,4.66,0,0,1,3.11,1c1.41,0,2.55,0,3.49-.1Zm-6.17,11a18.36,18.36,0,0,0-3,.18c-1.19.71-1.62,1.34-1.62,2.4,0,2,1.57,3,3.36,3,2.65,0,4.5-1.29,4.5-3.44C304.2,73.67,303.24,72.91,300.94,72.91Zm-1.39-11.1a2.36,2.36,0,0,0-2.43,2.5c0,2.81,1.42,3.84,2.43,3.84a2.33,2.33,0,0,0,2.58-2.53C302.13,63.4,301,61.81,299.55,61.81Z"/></svg>