<?xml version="1.0" encoding="utf-8"?>
<!DOCTYPE svg>
<svg version="1.1" xmlns="http://www.w3.org/2000/svg" xmlns:xlink="http://www.w3.org/1999/xlink" x="0px" y="0px" viewBox="0 0 1000 900" enable-background="new 0 0 1000 1000" xml:space="preserve">
<g><path style = "fill:white" d="M990,507.4c0-17.3-14.4-39.6-41.4-52.5H835.3v-25.8h66.9c-61.6-25.8-139.5-51.6-185.5-51.6H396.8v154.7v64.5h478c50.3,0,105.4-12.9,113.9-64.5h-0.3c0.9-4.6,1.6-9.4,1.6-14.5V507.4z M732.1,416.2h38.7v51.6h-38.7V416.2z M641.8,416.2h38.7v51.6h-38.7V416.2z M551.6,416.2h38.7v51.6h-38.7V416.2z M461.3,416.2H500v51.6h-38.7V416.2z"/>
<path style = "fill:white" d="M332.4,596.7c14.2,0,25.8-11.5,25.8-25.8v-38.7V403.3c0-14.2-11.5-25.8-25.8-25.8H35.8C21.5,377.5,10,389,10,403.3v128.9v38.7c0,14.2,11.5,25.8,25.8,25.8H332.4z M255,416.2h38.7v51.6H255V416.2z M164.7,416.2h38.7v51.6h-38.7V416.2z M74.5,416.2h38.7v51.6H74.5V416.2z"/><path style = "fill:white" d= "M35.8,609.6h863.9v12.9H35.8V609.6L35.8,609.6z"/></g>
</svg>