<svg id="REVZILLA_LOGO" data-name="REVZILLA LOGO" xmlns="http://www.w3.org/2000/svg" viewBox="0 0 530.47 100.6"><defs><style>.cls-1{fill:#fff;}.cls-2{fill:#ff4c00;}</style></defs><title>RevZilla_NewPrimaryLogo_V1_CS</title><polygon points="67.44 97.56 93.84 71.17 88.72 71.17 62.33 97.56 7.34 97.56 86.38 18.53 371.57 18.53 387.06 3.04 473.31 3.04 457.82 18.53 523.12 18.53 482.07 59.58 494.4 59.58 456.43 97.56 67.44 97.56"/><path class="cls-1" d="M489.44,45.58l-1.73,1.73L474,61.07h65.3l-1.73,1.73L498.2,102.12h12.34l-1.73,1.73-29.87,29.87-0.3.3H98.27l1.73-1.73,24.66-24.66H110.94l-26.09,26.1-0.3.3H38.17l1.73-1.73,70.92-70.92,0.3-.3H396.31L411.5,45.88l0.3-.3h77.65m14.69-6.08H409.27l-1.78,1.78-0.3.3L393.79,55H108.6l-1.78,1.78-0.3.3L35.59,128l-1.73,1.73L23.48,140.1H481.16l1.78-1.78,0.3-.3,29.87-29.87,1.73-1.73L525.23,96H512.89L541.82,67.1l1.73-1.73L553.94,55h-65.3L492,51.62l1.73-1.73L504.13,39.5h0Z" transform="translate(-23.48 -39.5)"/><polygon class="cls-2" points="337.98 31.2 291.03 31.2 271.19 43.83 295.97 43.83 223.25 84.88 282.55 84.88 295.19 72.25 272.23 72.25 337.98 31.2"/><polygon class="cls-2" points="354.31 42.03 365.14 31.2 346.04 31.2 335.21 42.03 354.31 42.03"/><path class="cls-2" d="M474.65,124.38l12.63-12.63H474.94L516,70.7h-53.5L449.86,83.33h35.55l-7.89,8L442,91.23l-33.16,33.16h65.84ZM457,111.75H440.3l8-7.89H465Z" transform="translate(-23.48 -39.5)"/><polygon class="cls-2" points="392.31 15.72 323.13 84.88 342.39 84.88 411.56 15.72 392.31 15.72"/><polygon class="cls-2" points="328.22 49.02 292.36 84.88 311.45 84.88 347.32 49.02 328.22 49.02"/><polygon class="cls-1" points="279.2 31.2 256.18 31.2 194.49 72.93 236.24 31.2 217.22 31.2 163.53 84.88 202.04 84.88 279.2 31.2"/><polygon class="cls-1" points="110.94 43.83 98.13 43.83 57.08 84.88 37.95 84.88 91.63 31.2 140.13 31.2 112.81 58.49 96.28 58.49 110.94 43.83"/><path class="cls-1" d="M121.52,124.38H175.3l12.63-12.63H153.2l8-8h34.73L229,70.7H175.21Zm60.1-41.05h17l-7.89,7.89h-17Z" transform="translate(-23.48 -39.5)"/><polygon class="cls-2" points="423.45 15.72 354.28 84.88 373.54 84.88 442.7 15.72 423.45 15.72"/></svg>
